<svg width="290" height="18" viewBox="0 0 290 18" fill="none" xmlns="http://www.w3.org/2000/svg">
<path d="M2.8 9.544C1.968 9.544 1.29067 9.304 0.768 8.824C0.256 8.33334 0 7.672 0 6.84C0 5.74134 0.432 4.94667 1.296 4.456C1.712 4.22134 2.21333 4.104 2.8 4.104H14.128V6.2H3.328C2.74133 6.2 2.448 6.424 2.448 6.872C2.448 7.32 2.74133 7.544 3.328 7.544L11.808 7.56C12.64 7.56 13.312 7.80534 13.824 8.296C14.3467 8.78667 14.608 9.448 14.608 10.28C14.608 11.4 14.176 12.1947 13.312 12.664C12.9067 12.888 12.4053 13 11.808 13H0V10.904L11.28 10.92C11.8667 10.92 12.16 10.6907 12.16 10.232C12.16 9.784 11.8667 9.56 11.28 9.56L2.8 9.544Z" fill="white"/>
<path d="M29.425 13H21.361C20.4223 13 19.745 12.7867 19.329 12.36C19.0623 12.0827 18.8863 11.768 18.801 11.416C18.737 11.1813 18.705 10.8187 18.705 10.328V6.2H17.105V4.104H18.705V0.552002H21.377V4.104H29.425V6.2H21.377V9.672C21.377 10.1627 21.489 10.4987 21.713 10.68C21.8943 10.8293 22.1983 10.904 22.625 10.904H29.425V13Z" fill="white"/>
<path d="M36.8809 10.904H46.1769V13H36.5289C35.1422 13 34.0809 12.6107 33.3449 11.832C32.6195 11.0427 32.2569 9.94934 32.2569 8.552C32.2569 7.15467 32.6195 6.06667 33.3449 5.288C34.0809 4.49867 35.1422 4.104 36.5289 4.104H46.1769V6.2H36.8809C36.3902 6.2 35.9849 6.33867 35.6649 6.616C35.5155 6.744 35.3235 7.04267 35.0889 7.512L35.0729 7.544H46.1769V9.544H35.0729L35.0889 9.592C35.3022 10.0507 35.4942 10.3493 35.6649 10.488C35.9849 10.7653 36.3902 10.904 36.8809 10.904Z" fill="white"/>
<path d="M53.4002 13C51.3522 13 50.0349 12.168 49.4482 10.504C49.2243 9.864 49.1122 9.192 49.1122 8.488V4.072H52.0243V8.216C52.0243 8.90934 52.2376 9.45334 52.6642 9.848C53.0056 10.168 53.4963 10.328 54.1362 10.328H62.5042V13H53.4002Z" fill="white"/>
<path d="M69.8177 13C67.7698 13 66.4524 12.168 65.8657 10.504C65.6417 9.864 65.5297 9.192 65.5297 8.488V4.072H68.4417V8.216C68.4417 8.90934 68.6551 9.45334 69.0817 9.848C69.4231 10.168 69.9137 10.328 70.5537 10.328H78.9218V13H69.8177Z" fill="white"/>
<path d="M82.5553 6.2V4.104H93.2272C94.2832 4.104 95.1206 4.38134 95.7393 4.936C96.1233 5.27734 96.3846 5.67734 96.5233 6.136C96.6193 6.47734 96.6673 6.95734 96.6673 7.576V13H84.7473C83.8726 13 83.1846 12.76 82.6833 12.28C82.1819 11.8 81.9313 11.128 81.9313 10.264C81.9313 9.4 82.1819 8.73334 82.6833 8.264C83.1953 7.784 83.8833 7.544 84.7473 7.544H93.9953V7.464C93.9953 6.80267 93.7499 6.40267 93.2593 6.264C93.1099 6.22134 92.8806 6.2 92.5713 6.2H82.5553ZM93.9953 10.904V9.544H85.4512C84.8859 9.544 84.6032 9.77334 84.6032 10.232C84.6032 10.68 84.8859 10.904 85.4512 10.904H93.9953Z" fill="white"/>
<path d="M110.182 7.24C110.182 6.94134 110.087 6.70667 109.895 6.536C109.756 6.408 109.543 6.344 109.255 6.344L102.614 6.328V13H99.9425V4.104L109.702 4.072C110.748 4.072 111.548 4.36534 112.103 4.952C112.604 5.48534 112.854 6.09867 112.854 6.792V7.72H110.182V7.24Z" fill="white"/>
<path d="M185.232 14H174V1.552H176.672V5.104H185.232C187.045 5.104 188.299 5.776 188.992 7.12C189.333 7.78134 189.504 8.592 189.504 9.552C189.504 11.4827 188.843 12.7947 187.52 13.488C186.869 13.8293 186.107 14 185.232 14ZM184.88 7.328H176.672V11.776H184.88C185.499 11.776 185.968 11.552 186.288 11.104C186.565 10.72 186.704 10.2027 186.704 9.552C186.704 8.90134 186.565 8.384 186.288 8C185.968 7.552 185.499 7.328 184.88 7.328Z" fill="white"/>
<path d="M194.219 10.832C194.219 11.4613 194.528 11.776 195.147 11.776H203.243V5.104H205.915V14H194.715C193.627 14 192.827 13.7173 192.315 13.152C191.803 12.5867 191.547 11.9627 191.547 11.28V5.104H194.219V10.832Z" fill="white"/>
<path d="M218.756 8.24C218.756 7.94134 218.66 7.70667 218.468 7.536C218.329 7.408 218.116 7.344 217.828 7.344L211.188 7.328V14H208.516V5.104L218.276 5.072C219.321 5.072 220.121 5.36534 220.676 5.952C221.177 6.48534 221.428 7.09867 221.428 7.792V8.72H218.756V8.24Z" fill="white"/>
<path d="M240.311 5.12V14.256C240.311 15.3013 240.007 16.1173 239.399 16.704C238.791 17.2907 238.012 17.584 237.063 17.584L224.695 17.552V15.472L236.583 15.488C236.999 15.488 237.287 15.3653 237.447 15.12C237.575 14.928 237.639 14.6133 237.639 14.176V14H227.991C226.604 14 225.543 13.6107 224.807 12.832C224.081 12.0427 223.719 10.9493 223.719 9.552C223.719 8.15467 224.081 7.06667 224.807 6.288C225.543 5.49867 226.604 5.104 227.991 5.104L240.311 5.12ZM228.343 7.328C227.724 7.328 227.255 7.552 226.935 8C226.657 8.384 226.519 8.90134 226.519 9.552C226.519 10.2027 226.657 10.72 226.935 11.104C227.244 11.552 227.713 11.776 228.343 11.776L237.639 11.744V7.344L228.343 7.328Z" fill="white"/>
<path d="M247.608 11.904H256.904V14H247.256C245.87 14 244.808 13.6107 244.072 12.832C243.347 12.0427 242.984 10.9493 242.984 9.552C242.984 8.15467 243.347 7.06667 244.072 6.288C244.808 5.49867 245.87 5.104 247.256 5.104H256.904V7.2H247.608C247.118 7.2 246.712 7.33867 246.392 7.616C246.243 7.744 246.051 8.04267 245.816 8.512L245.8 8.544H256.904V10.544H245.8L245.816 10.592C246.03 11.0507 246.222 11.3493 246.392 11.488C246.712 11.7653 247.118 11.904 247.608 11.904Z" fill="white"/>
<path d="M269.584 8.24C269.584 7.94134 269.488 7.70667 269.296 7.536C269.157 7.408 268.944 7.344 268.656 7.344L262.016 7.328V14H259.344V5.104L269.104 5.072C270.149 5.072 270.949 5.36534 271.504 5.952C272.005 6.48534 272.256 7.09867 272.256 7.792V8.72H269.584V8.24Z" fill="white"/>
<path d="M277.347 10.544C276.515 10.544 275.838 10.304 275.315 9.824C274.803 9.33334 274.547 8.672 274.547 7.84C274.547 6.74134 274.979 5.94667 275.843 5.456C276.259 5.22134 276.76 5.104 277.347 5.104H288.675V7.2H277.875C277.288 7.2 276.995 7.424 276.995 7.872C276.995 8.32 277.288 8.544 277.875 8.544L286.355 8.56C287.187 8.56 287.859 8.80534 288.371 9.296C288.894 9.78667 289.155 10.448 289.155 11.28C289.155 12.4 288.723 13.1947 287.859 13.664C287.454 13.888 286.952 14 286.355 14H274.547V11.904L285.827 11.92C286.414 11.92 286.707 11.6907 286.707 11.232C286.707 10.784 286.414 10.56 285.827 10.56L277.347 10.544Z" fill="white"/>
</svg>
